<svg width="16" height="14" viewBox="0 0 16 14" fill="none" xmlns="http://www.w3.org/2000/svg">
<path d="M1.81875 11.9063L7.48125 9.90001L3.825 6.24376L1.81875 11.9063ZM14.9063 3.30001C14.8063 3.40001 14.7 3.45001 14.5875 3.45001C14.475 3.45001 14.3688 3.40001 14.2688 3.30001L13.95 2.98126C13.775 2.80626 13.5563 2.71876 13.2938 2.71876C13.0438 2.71876 12.8313 2.80626 12.6563 2.98126L8.85 6.80626C8.7625 6.89376 8.65625 6.93751 8.53125 6.93751C8.40625 6.93751 8.3 6.89376 8.2125 6.80626C8.125 6.71876 8.08125 6.61251 8.08125 6.48751C8.08125 6.36251 8.125 6.25626 8.2125 6.16876L12.0188 2.34376C12.3688 1.99376 12.7875 1.81876 13.275 1.81876C13.775 1.81876 14.2063 1.99376 14.5688 2.34376L14.9063 2.68126C14.9938 2.76876 15.0375 2.87501 15.0375 3.00001C15.0375 3.11251 14.9938 3.21251 14.9063 3.30001ZM5.64375 1.06876C5.73125 0.981262 5.8375 0.937512 5.9625 0.937512C6.0875 0.937512 6.19375 0.981262 6.28125 1.06876L6.6 1.38751C6.9375 1.75001 7.10625 2.17501 7.10625 2.66251C7.10625 3.15001 6.9375 3.57501 6.6 3.93751L6.28125 4.25626C6.19375 4.34376 6.0875 4.38751 5.9625 4.38751C5.8375 4.38751 5.73125 4.34376 5.64375 4.25626C5.55625 4.16876 5.5125 4.06251 5.5125 3.93751C5.5125 3.81251 5.55625 3.70626 5.64375 3.61876L5.9625 3.30001C6.1375 3.12501 6.225 2.91876 6.225 2.68126C6.225 2.43126 6.1375 2.21876 5.9625 2.04376L5.625 1.70626C5.5375 1.61876 5.49375 1.51876 5.49375 1.40626C5.49375 1.28126 5.54375 1.16876 5.64375 1.06876ZM7.875 0.131261C7.9625 0.0437609 8.06875 1.0848e-05 8.19375 1.0848e-05C8.31875 1.0848e-05 8.425 0.0437609 8.5125 0.131261L9.46875 1.08751C9.83125 1.45001 10.0125 1.88126 10.0125 2.38126C10.0125 2.86876 9.83125 3.28751 9.46875 3.63751L7.575 5.53126C7.4875 5.61876 7.38125 5.66251 7.25625 5.66251C7.14375 5.66251 7.0375 5.61876 6.9375 5.53126C6.8375 5.44376 6.7875 5.33751 6.7875 5.21251C6.7875 5.08751 6.8375 4.97501 6.9375 4.87501L8.83125 2.98126C9.00625 2.80626 9.09375 2.59376 9.09375 2.34376C9.09375 2.09376 9.00625 1.88126 8.83125 1.70626L7.875 0.768761C7.7875 0.681262 7.74375 0.575012 7.74375 0.450011C7.74375 0.325011 7.7875 0.218761 7.875 0.131261ZM14.25 7.76251C14.1625 7.85001 14.0563 7.89376 13.9313 7.89376C13.8063 7.89376 13.7 7.85001 13.6125 7.76251L12.6563 6.80626C12.4813 6.63126 12.2688 6.54376 12.0188 6.54376C11.7688 6.54376 11.5563 6.63126 11.3813 6.80626L10.1063 8.08126C10.0188 8.16876 9.9125 8.21251 9.7875 8.21251C9.6625 8.21251 9.55625 8.16876 9.46875 8.08126C9.38125 7.99376 9.3375 7.88751 9.3375 7.76251C9.3375 7.63751 9.38125 7.53126 9.46875 7.44376L10.7438 6.16876C11.1063 5.83126 11.5313 5.66251 12.0188 5.66251C12.5188 5.65001 12.9438 5.81876 13.2938 6.16876L14.25 7.12501C14.3375 7.21251 14.3813 7.31876 14.3813 7.44376C14.3813 7.56876 14.3375 7.67501 14.25 7.76251ZM0.0750018 12.7875L2.90625 4.80001C2.95625 4.66251 3.0375 4.55626 3.15 4.48126C3.275 4.39376 3.40625 4.35001 3.54375 4.35001C3.63125 4.35001 3.7125 4.36876 3.7875 4.40626C3.875 4.43126 3.95 4.47501 4.0125 4.53751L9.20625 9.71251C9.26875 9.77501 9.3125 9.85001 9.3375 9.93751C9.375 10.0125 9.39375 10.0938 9.39375 10.1813C9.39375 10.3188 9.35 10.45 9.2625 10.575C9.1875 10.6875 9.08125 10.7688 8.94375 10.8188L0.937502 13.65C0.800002 13.7 0.668752 13.7063 0.543752 13.6688C0.431252 13.6313 0.331252 13.5688 0.243752 13.4813C0.156252 13.3938 0.0937517 13.2938 0.0562515 13.1813C0.0187516 13.0563 0.0250016 12.925 0.0750018 12.7875Z" fill="#4A4A47"/>
</svg>
