<svg width="15" height="13" viewBox="0 0 15 13" fill="none" xmlns="http://www.w3.org/2000/svg">
<path d="M7.2 10.35C8.1 10.35 8.85 10.0437 9.45 9.43124C10.05 8.81874 10.35 8.07499 10.35 7.19999C10.35 6.33749 10.05 5.59999 9.45 4.98749C8.85 4.36249 8.1 4.04999 7.2 4.04999C6.3 4.04999 5.55 4.36249 4.95 4.98749C4.35 5.59999 4.05 6.34374 4.05 7.21874C4.05 8.08124 4.35 8.81874 4.95 9.43124C5.55 10.0437 6.3 10.35 7.2 10.35ZM7.2 8.99999C6.675 8.99999 6.24375 8.82499 5.90625 8.47499C5.56875 8.12499 5.4 7.69374 5.4 7.18124C5.4 6.68124 5.56875 6.26249 5.90625 5.92499C6.24375 5.57499 6.675 5.39999 7.2 5.39999C7.725 5.39999 8.15625 5.57499 8.49375 5.92499C8.83125 6.26249 9 6.68124 9 7.18124C9 7.69374 8.83125 8.12499 8.49375 8.47499C8.15625 8.82499 7.725 8.99999 7.2 8.99999ZM1.35 12.6C0.9875 12.6 0.66875 12.4687 0.39375 12.2062C0.13125 11.9312 -2.98023e-08 11.6125 -2.98023e-08 11.25V3.14999C-2.98023e-08 2.78749 0.13125 2.47499 0.39375 2.21249C0.66875 1.93749 0.9875 1.79999 1.35 1.79999H3.6L4.5375 0.543737C4.675 0.368737 4.8375 0.237487 5.025 0.149987C5.2125 0.0499873 5.4125 -1.26362e-05 5.625 -1.26362e-05H8.775C8.9875 -1.26362e-05 9.1875 0.0499873 9.375 0.149987C9.5625 0.237487 9.725 0.368737 9.8625 0.543737L10.8 1.79999H13.05C13.425 1.79999 13.7438 1.93749 14.0063 2.21249C14.2688 2.47499 14.4 2.78749 14.4 3.14999V11.25C14.4 11.6125 14.2688 11.9312 14.0063 12.2062C13.7438 12.4687 13.425 12.6 13.05 12.6H1.35ZM1.35 11.25H13.05V3.14999H10.125L8.775 1.34999H5.625L4.275 3.14999H1.35V11.25Z" fill="#4A4A47"/>
</svg>
