<svg width="14" height="15" viewBox="0 0 14 15" fill="none" xmlns="http://www.w3.org/2000/svg">
<g id="span">
<path id="&#236;&#139;&#156;&#234;&#176;&#129;&#236;&#158;&#165;&#236;&#149;&#160;&#236;&#157;&#184;" d="M10.3064 0L8.57166 3.03987C8.21132 2.99449 7.84087 2.9704 7.46238 2.9704C2.46832 2.9704 0 7.59411 0 7.59411C0 7.65353 1.31212 9.97729 3.86394 11.2885L1.74583 15L3.68292 14.9988L5.2823 12.2069C5.31927 12.2123 5.35618 12.2177 5.39336 12.2226L5.30336 12.1703L9.60198 4.66643L10.2653 5.05235L6.12197 12.2875C6.25942 12.294 6.39791 12.2976 6.53761 12.2976C6.76814 12.2976 6.99355 12.2875 7.21365 12.2684L11.157 5.38216L11.8545 5.78766L8.23497 12.109C8.73437 11.9958 9.20183 11.8365 9.63756 11.6454L12.6265 6.4259L13.324 6.83139L11.0009 10.8884C12.9837 9.54175 14 7.70805 14 7.65495C14 7.65495 12.751 5.09362 10.1463 3.71648L12.2752 0H10.3064ZM7.72135 4.21162C7.7818 4.21162 7.84197 4.21202 7.90196 4.21321L7.6068 4.73044C7.41551 4.69134 7.22085 4.67145 7.02567 4.67107C6.24249 4.6711 5.49141 4.98468 4.93764 5.54282C4.38387 6.10096 4.07277 6.85794 4.07279 7.64724C4.07362 8.37404 4.33831 9.0754 4.81694 9.61905L4.38513 10.3756C1.34258 9.4923 0.145434 7.57309 0.145434 7.5285C0.145434 7.5285 2.41939 4.21162 7.72135 4.21162Z" fill="#075B39"/>
</g>
</svg>
