<svg width="20" height="20" viewBox="0 0 20 20" fill="none" xmlns="http://www.w3.org/2000/svg">
<g id="Layer_1" clip-path="url(#clip0_0_17)">
<path id="Vector" d="M9.95218 5.93709C8.97214 5.93252 8.10539 6.79235 8.10158 7.7726C8.09776 8.75395 8.95151 9.61764 9.93436 9.62657C10.9089 9.63546 11.7755 8.77458 11.7828 7.79042C11.79 6.81189 10.9304 5.94158 9.95218 5.93713V5.93709Z" fill="#F9E000"/>
<path id="Vector_2" d="M15.3843 0H4.61572C2.0665 0 0 2.0665 0 4.61568V15.3844C0 17.9335 2.0665 20 4.61572 20H15.3843C17.9335 20 20 17.9335 20 15.3844V4.61568C20 2.0665 17.9335 0 15.3843 0ZM15.3353 8.23157C15.22 9.5395 14.5326 10.653 13.6753 11.6194C12.2333 13.245 11.0921 15.0352 10.4091 17.1072C10.3365 17.3275 10.2542 17.5877 9.94822 17.5954C9.66696 17.6024 9.5691 17.3702 9.50335 17.1658C8.77547 14.9013 7.44235 13.0145 5.91862 11.2228C5.0831 10.2403 4.52876 9.08813 4.53082 7.73941C4.53526 4.7647 6.9517 2.3605 9.94302 2.36256C13.0958 2.31895 15.6165 5.04407 15.3353 8.23157H15.3353Z" fill="#F9E000"/>
<path id="Vector_3" d="M9.94303 2.36252C6.95171 2.36046 4.53527 4.76465 4.53083 7.73937C4.52877 9.08809 5.08311 10.2403 5.91863 11.2228C7.44236 13.0145 8.77548 14.9013 9.50337 17.1658C9.56911 17.3702 9.66697 17.6024 9.94823 17.5953C10.2542 17.5876 10.3364 17.3274 10.4091 17.1072C11.0921 15.0351 12.2333 13.245 13.6754 11.6193C14.5325 10.653 15.22 9.53946 15.3353 8.23153C15.6166 5.04403 13.0958 2.31887 9.94307 2.36252H9.94303ZM11.7828 7.79036C11.7755 8.77451 10.9089 9.63539 9.93435 9.6265C8.9515 9.61761 8.09775 8.75388 8.10156 7.77254C8.10538 6.79229 8.97213 5.9325 9.95217 5.93702C10.9304 5.94147 11.7899 6.81182 11.7828 7.79032V7.79036Z" fill="#007DFD"/>
</g>
<defs>
<clipPath id="clip0_0_17">
<rect width="20" height="20" fill="white"/>
</clipPath>
</defs>
</svg>
