<svg width="15" height="15" viewBox="0 0 15 15" fill="none" xmlns="http://www.w3.org/2000/svg">
<g id="span">
<path id="&#236;&#178;&#173;&#234;&#176;&#129;&#236;&#158;&#165;&#236;&#149;&#160;&#236;&#157;&#184;" d="M13.3636 0L11.4158 1.94405C11.9565 2.51239 12.3411 3.21047 12.5321 3.97068L15 1.51646V0H13.3636ZM7.28036 0.952429C5.37558 0.946325 3.67263 2.14561 3.03983 3.93872C2.97919 4.11084 3.06975 4.29945 3.24216 4.36009C3.41444 4.42082 3.60345 4.33081 3.66454 4.15895C4.20454 2.6288 5.6527 1.60869 7.27815 1.61391C8.90359 1.61912 10.3457 2.64807 10.8758 4.18166C11.3943 5.68137 10.9374 6.90957 10.146 7.8879C9.54944 8.55516 9.34153 8.74963 9.2763 8.82868C9.0423 9.11229 8.57758 9.66189 8.42711 10.2071L8.42633 10.211L8.42555 10.2156C8.17735 11.2101 8.04826 11.8502 7.72776 12.1609C7.5675 12.3162 7.28955 12.4656 7.01184 12.4818C6.73414 12.4979 6.43831 12.4321 5.92891 12.2493C5.75679 12.1874 5.56703 12.2766 5.50512 12.4484C5.44321 12.6204 5.53286 12.8098 5.70524 12.8714C6.26498 13.0723 6.63903 13.1655 7.04989 13.1416C7.46075 13.1178 7.92471 12.8922 8.1896 12.6355C8.71938 12.122 8.81646 11.3819 9.06778 10.375L9.06622 10.3826C9.13907 10.1186 9.57121 9.51173 9.78757 9.2495C9.84241 9.18304 10.0653 8.93125 10.1131 8.87717C11.555 7.69328 12.1129 5.73378 11.5019 3.96611C10.8806 2.16898 9.18514 0.958546 7.28036 0.952429ZM7.30592 2.71946C7.27268 2.71919 7.23926 2.71953 7.20586 2.72062C6.13692 2.75161 5.18489 3.40926 4.77928 4.39682C4.70993 4.56583 4.79108 4.75894 4.96047 4.82802C5.12936 4.89695 5.3223 4.81651 5.39191 4.64819C5.69888 3.90079 6.41661 3.40474 7.22559 3.3813C8.03456 3.35785 8.77962 3.81113 9.12952 4.53948C9.47942 5.26784 9.3667 6.1315 8.84183 6.74635C8.72344 6.88523 8.74012 7.09355 8.87908 7.21192C9.01822 7.33007 9.22695 7.31344 9.34555 7.17475C10.0391 6.36233 10.1884 5.21636 9.72605 4.25396C9.27816 3.32163 8.33618 2.7275 7.30592 2.71946ZM4.94758 8.39969L0 13.3377V15L1.44653 14.9952L6.98661 9.48554C6.79894 9.43908 6.61442 9.38076 6.43417 9.31093C6.00559 9.14181 5.60517 8.90882 5.24655 8.61991C5.14394 8.55059 5.0442 8.47712 4.94758 8.39969Z" fill="white"/>
</g>
</svg>
