<svg width="17" height="19" viewBox="0 0 17 19" fill="none" xmlns="http://www.w3.org/2000/svg">
<path d="M2.05729 16.172H5.20833V10.9376C5.20833 10.6424 5.30382 10.3994 5.49479 10.2084C5.70312 10.0001 5.95486 9.89591 6.25 9.89591H10.4167C10.7118 9.89591 10.9549 10.0001 11.1458 10.2084C11.3542 10.3994 11.4583 10.6424 11.4583 10.9376V16.172H14.6094V6.77091L8.33333 2.05737L2.05729 6.77091V16.172ZM-4.96209e-06 16.172V6.77091C-4.96209e-06 6.44105 0.0694395 6.12855 0.208329 5.83341C0.364578 5.53828 0.572912 5.29522 0.833329 5.10425L7.10937 0.416747C7.45659 0.13897 7.86458 8.08835e-05 8.33333 8.08835e-05C8.80208 8.08835e-05 9.21007 0.13897 9.55729 0.416747L15.8333 5.10425C16.0937 5.29522 16.2934 5.53828 16.4323 5.83341C16.5885 6.12855 16.6667 6.44105 16.6667 6.77091V16.172C16.6667 16.7275 16.4583 17.2136 16.0417 17.6303C15.6424 18.0296 15.1649 18.2292 14.6094 18.2292H10.4167C10.1215 18.2292 9.86979 18.1338 9.66145 17.9428C9.47048 17.7345 9.375 17.4827 9.375 17.1876V11.9792H7.29166V17.1876C7.29166 17.4827 7.1875 17.7345 6.97916 17.9428C6.78819 18.1338 6.54513 18.2292 6.25 18.2292H2.05729C1.50173 18.2292 1.01562 18.0296 0.598954 17.6303C0.199648 17.2136 -4.96209e-06 16.7275 -4.96209e-06 16.172Z" fill="#075B39"/>
</svg>
