<svg width="10" height="12" viewBox="0 0 10 12" fill="none" xmlns="http://www.w3.org/2000/svg">
<path d="M4.875 10.5156C6.11458 9.40104 7.04688 8.375 7.67188 7.4375C8.30729 6.5 8.625 5.66146 8.625 4.92187C8.625 3.82812 8.26563 2.92187 7.54688 2.20312C6.83854 1.48437 5.94792 1.125 4.875 1.125C3.80208 1.125 2.90625 1.48437 2.1875 2.20312C1.47917 2.92187 1.125 3.82812 1.125 4.92187C1.125 5.66146 1.4375 6.5 2.0625 7.4375C2.69792 8.375 3.63542 9.40104 4.875 10.5156ZM4.875 11.6406C4.73958 11.6406 4.60938 11.6198 4.48438 11.5781C4.36979 11.526 4.25521 11.4531 4.14063 11.3594C3.72396 10.9948 3.27083 10.5677 2.78125 10.0781C2.30208 9.58854 1.85417 9.0625 1.4375 8.5C1.02083 7.9375 0.677083 7.35417 0.40625 6.75C0.135417 6.13542 1.78814e-07 5.52604 1.78814e-07 4.92187C1.78814e-07 3.52604 0.463542 2.35937 1.39063 1.42187C2.31771 0.473958 3.47917 -5.36442e-07 4.875 -5.36442e-07C6.26042 -5.36442e-07 7.41667 0.473958 8.34375 1.42187C9.28125 2.35937 9.75 3.52604 9.75 4.92187C9.75 5.52604 9.60938 6.13542 9.32813 6.75C9.05729 7.36458 8.71354 7.95312 8.29688 8.51562C7.89063 9.07812 7.44271 9.60417 6.95313 10.0937C6.47396 10.5729 6.02604 10.9948 5.60938 11.3594C5.49479 11.4531 5.375 11.526 5.25 11.5781C5.13542 11.6198 5.01042 11.6406 4.875 11.6406ZM4.875 6C5.1875 6 5.45313 5.89062 5.67188 5.67187C5.89063 5.45312 6 5.1875 6 4.875C6 4.5625 5.89063 4.29687 5.67188 4.07812C5.45313 3.85937 5.1875 3.75 4.875 3.75C4.5625 3.75 4.29688 3.85937 4.07813 4.07812C3.85938 4.29687 3.75 4.5625 3.75 4.875C3.75 5.1875 3.85938 5.45312 4.07813 5.67187C4.29688 5.89062 4.5625 6 4.875 6Z" fill="#5E5E5E"/>
</svg>
