<svg width="28" height="28" viewBox="0 0 28 28" fill="none" xmlns="http://www.w3.org/2000/svg">
<g id="icons-&#236;&#182;&#149;&#236;&#160;&#156;&#234;&#179;&#181;&#236;&#151;&#176; 1">
<path id="Vector" d="M17.4178 4.07712C15.4316 2.23131 12.5848 2.04128 10.4285 3.6898C7.70943 5.7686 6.96202 9.72468 8.27467 12.8517C9.04506 14.6866 10.5514 16.1989 12.5067 16.6807L11.8023 18.4079C11.7956 18.4859 11.7986 18.6197 11.8253 18.6772C11.8549 18.7425 11.9935 18.823 12.0661 18.8236L13.0247 18.8315C12.4722 19.9438 12.3681 21.176 13.34 21.95C14.3023 22.7161 13.6287 24.2031 13.0054 25.1768C12.9588 25.2488 12.8952 25.4116 12.9231 25.4915C12.9509 25.572 13.0611 25.6525 13.1446 25.7179H13.3255L13.452 25.618C14.2672 24.384 15.02 22.511 13.7292 21.5167C12.8589 20.8467 13.1839 19.7217 13.7183 18.8472L14.9982 18.8442C15.0715 18.8436 15.2052 18.7443 15.2415 18.6826C15.2784 18.6215 15.2651 18.4641 15.2343 18.3836L14.5873 16.7176C16.6619 16.3563 18.2802 14.7852 19.0857 12.8837C20.3311 9.94497 19.7798 6.27333 17.4178 4.07712ZM9.96676 12.126C9.92137 12.1363 9.87598 12.1412 9.8312 12.1412C9.55523 12.1412 9.3059 11.9518 9.24175 11.6716C9.18426 11.4204 9.13887 11.1626 9.108 10.9048C9.06867 10.5725 9.30529 10.2712 9.63693 10.2318C9.96978 10.1919 10.27 10.4285 10.3099 10.7608C10.3359 10.9762 10.3734 11.1916 10.4212 11.4004C10.4963 11.726 10.293 12.051 9.96676 12.126ZM13.0998 5.24754C11.8005 5.69719 10.768 7.01407 10.4055 8.68316C10.3438 8.967 10.0932 9.16005 9.81486 9.16005C9.77189 9.16005 9.72892 9.15581 9.68595 9.14613C9.35915 9.07532 9.15158 8.75337 9.22238 8.42657C9.67385 6.34716 11.0083 4.69077 12.7046 4.10375C13.0199 3.99481 13.3649 4.16184 13.4744 4.47775C13.5833 4.79365 13.4157 5.13861 13.0998 5.24754Z" fill="#4D4D4D"/>
</g>
</svg>
