<svg width="28" height="28" viewBox="0 0 28 28" fill="none" xmlns="http://www.w3.org/2000/svg">
<g id="icons-&#234;&#180;&#128;&#234;&#180;&#145;&#236;&#167;&#128; 1">
<path id="Vector" d="M21.7497 8.68014H18.9604V7.85951C18.9604 6.84764 18.1404 6.02762 17.1285 6.02762H10.8739C9.86206 6.02762 9.04143 6.84764 9.04143 7.85951V8.68014H6.25033C5.12348 8.68014 4.20965 9.59396 4.20965 10.7208V19.9323C4.20965 21.0592 5.12348 21.973 6.25033 21.973H21.7497C22.8765 21.973 23.7903 21.0592 23.7903 19.9323V10.7208C23.7903 9.59396 22.8765 8.68014 21.7497 8.68014ZM14.0003 20.0969C11.3617 20.0969 9.22238 17.9576 9.22238 15.319C9.22238 12.6804 11.3617 10.5417 14.0003 10.5417C16.6389 10.5417 18.7776 12.6804 18.7776 15.319C18.7776 17.9576 16.6389 20.0969 14.0003 20.0969Z" fill="#4D4D4D"/>
<path id="Vector_2" d="M15.9411 17.8072C17.3147 16.7347 17.5589 14.7518 16.4865 13.3782C15.414 12.0045 13.4311 11.7604 12.0575 12.8328C10.6838 13.9052 10.4397 15.8881 11.5121 17.2618C12.5845 18.6354 14.5674 18.8796 15.9411 17.8072Z" fill="#4D4D4D"/>
</g>
</svg>
