<svg width="17" height="17" viewBox="0 0 17 17" fill="none" xmlns="http://www.w3.org/2000/svg">
<path d="M8.33333 8.30737C7.1875 8.30737 6.20659 7.89939 5.39062 7.08341C4.57465 6.26744 4.16666 5.28654 4.16666 4.14071C4.16666 2.99487 4.57465 2.02265 5.39062 1.22404C6.20659 0.408066 7.1875 7.99894e-05 8.33333 7.99894e-05C9.47916 7.99894e-05 10.4601 0.408066 11.276 1.22404C12.092 2.02265 12.5 2.99487 12.5 4.14071C12.5 5.28654 12.092 6.26744 11.276 7.08341C10.4601 7.89939 9.47916 8.30737 8.33333 8.30737ZM-4.96209e-06 14.5834V13.7501C-4.96209e-06 13.1598 0.147564 12.6216 0.442703 12.1355C0.755204 11.632 1.16319 11.2501 1.66666 10.9897C2.74305 10.4515 3.8368 10.0522 4.94791 9.79175C6.05902 9.51397 7.1875 9.37508 8.33333 9.37508C9.47916 9.37508 10.6076 9.51397 11.7187 9.79175C12.8299 10.0522 13.9236 10.4515 15 10.9897C15.5035 11.2501 15.9028 11.632 16.1979 12.1355C16.5104 12.6216 16.6667 13.1598 16.6667 13.7501V14.5834C16.6667 15.1563 16.467 15.6424 16.0677 16.0417C15.6684 16.4411 15.1823 16.6407 14.6094 16.6407H2.05729C1.48437 16.6407 0.998259 16.4411 0.598954 16.0417C0.199648 15.6424 -4.96209e-06 15.1563 -4.96209e-06 14.5834ZM2.05729 14.5834H14.6094V13.7501C14.6094 13.5591 14.5573 13.3855 14.4531 13.2292C14.3663 13.0556 14.2361 12.9254 14.0625 12.8386C13.125 12.3699 12.1788 12.0227 11.224 11.797C10.2691 11.5539 9.30555 11.4324 8.33333 11.4324C7.36111 11.4324 6.39756 11.5539 5.4427 11.797C4.48784 12.0227 3.54166 12.3699 2.60416 12.8386C2.43055 12.9254 2.29166 13.0556 2.1875 13.2292C2.10069 13.3855 2.05729 13.5591 2.05729 13.7501V14.5834ZM8.33333 6.25008C8.90625 6.25008 9.39236 6.05043 9.79166 5.65112C10.2083 5.23446 10.4167 4.73966 10.4167 4.16675C10.4167 3.57647 10.2083 3.08168 9.79166 2.68237C9.39236 2.26571 8.90625 2.05737 8.33333 2.05737C7.76041 2.05737 7.26562 2.26571 6.84895 2.68237C6.44965 3.08168 6.25 3.57647 6.25 4.16675C6.25 4.73966 6.44965 5.23446 6.84895 5.65112C7.26562 6.05043 7.76041 6.25008 8.33333 6.25008Z" fill="#9E9E9E"/>
</svg>
