<svg preserveAspectRatio="none" overflow="visible" style="display: block;" width="26" height="26" viewBox="0 0 26 26" fill="none" xmlns="http://www.w3.org/2000/svg">
<g id="map">
<g id="Vector">
<path d="M24.4814 7.004C24.7192 6.90765 24.9894 6.93594 25.2021 7.0792C25.415 7.22257 25.543 7.46225 25.543 7.71884V20.0977C25.543 20.4118 25.3525 20.6945 25.0615 20.8126L17.4248 23.9073C17.2499 23.9782 17.0548 23.9831 16.877 23.92L8.4248 20.922L1.06152 23.9073C0.823779 24.0037 0.553598 23.9754 0.34082 23.8321C0.128016 23.6888 0 23.4491 0 23.1925V10.8136C4.14305e-06 10.4995 0.190445 10.2168 0.481445 10.0987L8.11816 7.004L8.25195 6.96298C8.38899 6.93472 8.53249 6.94395 8.66602 6.9913L17.1172 9.98838L24.4814 7.004ZM9.17969 19.5528L16.3633 22.1007V11.3585L9.17969 8.81064V19.5528ZM1.54297 11.3331V22.047L7.63672 19.5772V8.86338L1.54297 11.3331ZM17.9062 11.3331V22.047L24 19.5772V8.86338L17.9062 11.3331Z" fill="#0B2A1C"/>
<path d="M18.4557 6.45569C18.4557 10.8767 12.7715 14.6662 12.7715 14.6662C12.7715 14.6662 7.08733 10.8767 7.08733 6.45569C7.08733 4.94815 7.6862 3.50235 8.7522 2.43635C9.81819 1.37035 11.264 0.771484 12.7715 0.771484C14.2791 0.771484 15.7249 1.37035 16.7909 2.43635C17.8569 3.50235 18.4557 4.94815 18.4557 6.45569Z" fill="white"/>
<path d="M12.7715 8.35043C13.818 8.35043 14.6663 7.50213 14.6663 6.45569C14.6663 5.40926 13.818 4.56096 12.7715 4.56096C11.7251 4.56096 10.8768 5.40926 10.8768 6.45569C10.8768 7.50213 11.7251 8.35043 12.7715 8.35043Z" fill="white"/>
<path d="M17.684 6.45605C17.684 5.1531 17.1669 3.90277 16.2455 2.98145C15.3243 2.06028 14.0747 1.54306 12.7719 1.54297C11.4689 1.54297 10.2186 2.06012 9.29729 2.98145C8.37596 3.90277 7.85881 5.1531 7.85881 6.45605C7.85897 8.35639 9.0994 10.221 10.4897 11.6885C11.1689 12.4054 11.8507 12.9929 12.3637 13.4014C12.5162 13.5228 12.654 13.6272 12.7709 13.7148C12.888 13.6271 13.0263 13.523 13.1791 13.4014C13.6921 12.9929 14.3739 12.4054 15.0531 11.6885C16.4434 10.221 17.6839 8.35639 17.684 6.45605ZM13.8949 6.45605C13.8949 5.83579 13.3921 5.33223 12.7719 5.33203C12.1515 5.33203 11.6479 5.83567 11.6479 6.45605C11.6481 7.07628 12.1516 7.5791 12.7719 7.5791C13.392 7.57891 13.8948 7.07616 13.8949 6.45605ZM15.4379 6.45605C15.4377 7.92825 14.2441 9.12188 12.7719 9.12207C11.2995 9.12207 10.1051 7.92837 10.1049 6.45605C10.1049 4.98357 11.2994 3.78906 12.7719 3.78906C14.2442 3.78926 15.4379 4.98369 15.4379 6.45605ZM19.227 6.45605C19.2268 8.9765 17.6249 11.2167 16.1733 12.749C15.4316 13.5319 14.6928 14.1682 14.1401 14.6084C13.8631 14.8289 13.6312 15.0017 13.4672 15.1201C13.3853 15.1793 13.3204 15.2253 13.2748 15.2568C13.2521 15.2726 13.2338 15.2844 13.2211 15.293C13.2148 15.2973 13.2101 15.3013 13.2065 15.3037C13.2046 15.3049 13.2016 15.3066 13.2016 15.3066L13.2006 15.3076C12.9415 15.4804 12.6023 15.4804 12.3432 15.3076L12.3412 15.3066C12.3412 15.3066 12.3382 15.3049 12.3364 15.3037C12.3327 15.3013 12.3279 15.2972 12.3217 15.293C12.3091 15.2844 12.2906 15.2725 12.268 15.2568C12.2224 15.2253 12.1575 15.1793 12.0756 15.1201C11.9116 15.0017 11.6797 14.829 11.4028 14.6084C10.85 14.1682 10.1112 13.5318 9.36956 12.749C7.91791 11.2167 6.316 8.97643 6.31584 6.45605C6.31584 4.74391 6.9958 3.10129 8.20647 1.89062C9.41714 0.679958 11.0598 0 12.7719 0C14.4839 9.53316e-05 16.1258 0.680123 17.3364 1.89062C18.547 3.10129 19.227 4.74391 19.227 6.45605Z" fill="#0B2A1C"/>
</g>
</g>
</svg>
