<svg width="11" height="15" viewBox="0 0 11 15" fill="none" xmlns="http://www.w3.org/2000/svg">
<path d="M3.39288 0C2.62578 0 2.00152 0.592848 2.00152 1.33037C2.00152 2.05987 2.62578 2.66073 3.39288 2.66073C4.16631 2.66073 4.78624 2.05987 4.78624 1.33037C4.78624 0.592848 4.16631 0 3.39288 0ZM3.58395 2.96703C3.52539 2.96616 3.46581 2.96886 3.40557 2.9754C2.76298 3.04532 2.2952 3.52433 2.35671 4.04948L2.88404 8.55208C3.15191 9.27309 3.60195 9.42643 4.2754 9.41817H7.76403L9.42239 13.0918C9.61227 13.5124 10.0835 13.7176 10.4788 13.5518L10.5505 13.5217C10.9458 13.3559 11.1112 12.8837 10.9213 12.4631L9.10484 8.4398C8.87088 8.00191 8.6775 7.89393 8.18803 7.87442H5.15412L4.99779 6.53848H7.58989C7.89045 6.53848 8.13235 6.3053 8.13235 6.0156C8.13235 5.7259 7.89045 5.49273 7.58989 5.49273H4.87532L4.67668 3.79704C4.62094 3.32112 4.15 2.97561 3.58395 2.96703ZM2.20127 6.17961C0.874218 7.04896 0 8.5156 0 10.1737C0 12.8328 2.24819 15 5.00693 15C6.62263 15 8.06306 14.2563 8.97946 13.1062L8.45102 11.936C7.79817 13.1239 6.5039 13.9298 5.00693 13.9298C2.84835 13.9298 1.1101 12.2543 1.1101 10.1737C1.1101 9.09855 1.57435 8.13167 2.32086 7.44816L2.20127 6.17961Z" fill="#075B39"/>
</svg>
