<svg width="47" height="31.2" viewBox="0 0 47 31.2" fill="none" xmlns="http://www.w3.org/2000/svg">
<g transform="translate(0.000 1.702)"><path id="Vector" d="M1.80859 0.5H11.8398V8.52344H7.47949V11.4727H11.7705V14.0205H0.5V11.4717H4.93066V8.52344H0.545898V1.7627C0.545898 1.44154 0.657368 1.14696 0.910156 0.864258C1.19293 0.61127 1.48735 0.500034 1.80859 0.5ZM4.4541 3.02539C4.08306 3.02539 3.71215 3.11863 3.43848 3.39258C3.16524 3.66639 3.07227 4.03664 3.07227 4.40723V4.61523C3.07227 4.98603 3.1657 5.35613 3.43945 5.62988C3.7132 5.90359 4.08334 5.99707 4.4541 5.99707H9.26758V3.02539H4.4541Z" fill="#0B2A1C" stroke="var(--stroke-0, #0B2A1C)"/></g>
<g transform="translate(14.110 1.771)"><path id="Vector" d="M11.7705 11.3789V13.9287H7.34082V17.4307H4.79102V13.9287H0.5V11.3789H11.7705ZM1.83203 0.5H11.7246V3.00195H4.47656C4.0765 3.00201 3.70658 3.14274 3.44727 3.46973C3.21819 3.75884 3.11474 4.11625 3.0957 4.49805L3.09375 4.52539L3.0957 4.55273C3.11646 4.90575 3.22823 5.23091 3.43555 5.51367C3.68849 5.85939 4.05949 6.02045 4.47656 6.02051H11.7246V8.52344H0.592773V1.7627C0.592855 1.3761 0.716103 1.09433 0.948242 0.873047L0.957031 0.864258L0.964844 0.855469C1.18964 0.620097 1.46624 0.500095 1.83203 0.5Z" fill="#0B2A1C" stroke="var(--stroke-0, #0B2A1C)"/></g>
<g transform="translate(28.490 3.533)"><path id="Vector" d="M5.04199 10.2451L5.21387 10.3057L5.38379 10.2412L6.38965 9.8623V11.4727H9.91504V14.0205H0.5V11.4727H3.84082V9.82227L5.04199 10.2451ZM15.4131 0.5V4.4668H18.0117V7.01562H15.4131V10.8428H12.8643V0.5H15.4131Z" fill="#0B2A1C" stroke="var(--stroke-0, #0B2A1C)"/></g>
<g transform="translate(28.420 0.000)"><path id="Vector" d="M5.29883 0.5C8.06013 0.5001 9.9902 2.15194 10.0898 4.46289V4.46387C10.2081 7.10266 8.98145 8.91102 7.70215 10.0781C7.06047 10.6635 6.40901 11.0837 5.91797 11.3564C5.67313 11.4924 5.46955 11.5913 5.3291 11.6553C5.31879 11.66 5.30845 11.6636 5.29883 11.668C5.28921 11.6636 5.27887 11.66 5.26855 11.6553C5.12818 11.5913 4.92446 11.4925 4.67969 11.3564C4.18911 11.0838 3.53875 10.6642 2.89746 10.0791C1.61866 8.91213 0.391846 7.10325 0.507812 4.46387C0.611675 2.15084 2.53824 0.5 5.29883 0.5ZM5.29883 2.00195C3.81056 2.00195 2.60156 3.20556 2.60156 4.69922C2.60159 6.19162 3.80934 7.40039 5.29883 7.40039C6.79235 7.40025 7.99997 6.18739 8 4.69922C8 3.20919 6.78637 2.00209 5.29883 2.00195Z" fill="#0B2A1C" stroke="var(--stroke-0, #0B2A1C)"/></g>
<g transform="translate(38.320 19.023)"><path id="Vector" d="M3.42871 4.24316L2.62305 2.63184L2.47363 2.55664L1.08887 1.86426L4.82324 0.704102L3.42871 4.24316Z" fill="#0B2A1C" stroke="var(--stroke-0, #0B2A1C)"/></g>
<g transform="translate(0.550 22.561)"><path id="Vector" d="M38.7168 0.99707C33.7844 5.53911 26.8455 8.14746 19.5859 8.14746C12.4674 8.14731 5.62111 5.62444 0.710938 1.22949L0.989258 0.930664C5.84129 5.27114 12.5882 7.73924 19.5859 7.73926C26.5869 7.73926 33.5524 5.18749 38.4336 0.701172L38.7168 0.99707Z" fill="#0B2A1C" stroke="var(--stroke-0, #0B2A1C)"/></g>
</svg>