<svg width="11" height="15" viewBox="0 0 11 15" fill="none" xmlns="http://www.w3.org/2000/svg">
<path d="M2.025 4.50001V0.675011C2.025 0.487511 2.0875 0.331261 2.2125 0.206262C2.35 0.0687616 2.5125 1.15633e-05 2.7 1.15633e-05C2.8875 1.15633e-05 3.04375 0.0687616 3.16875 0.206262C3.30625 0.331261 3.375 0.487511 3.375 0.675011V4.50001H4.05V0.675011C4.05 0.487511 4.1125 0.331261 4.2375 0.206262C4.375 0.0687616 4.5375 1.15633e-05 4.725 1.15633e-05C4.9125 1.15633e-05 5.06875 0.0687616 5.19375 0.206262C5.33125 0.331261 5.4 0.487511 5.4 0.675011V4.50001C5.4 5.13751 5.20625 5.69376 4.81875 6.16876C4.44375 6.64376 3.9625 6.95626 3.375 7.10626V13.725C3.375 13.9125 3.30625 14.075 3.16875 14.2125C3.04375 14.3375 2.8875 14.4 2.7 14.4C2.5125 14.4 2.35 14.3375 2.2125 14.2125C2.0875 14.075 2.025 13.9125 2.025 13.725V7.10626C1.4375 6.95626 0.950002 6.64376 0.562502 6.16876C0.187502 5.69376 1.84774e-06 5.13751 1.84774e-06 4.50001V0.675011C1.84774e-06 0.487511 0.0625018 0.331261 0.187502 0.206262C0.325002 0.0687616 0.487502 1.15633e-05 0.675002 1.15633e-05C0.862502 1.15633e-05 1.01875 0.0687616 1.14375 0.206262C1.28125 0.331261 1.35 0.487511 1.35 0.675011V4.50001H2.025ZM9.45 8.10001H7.875C7.6875 8.10001 7.525 8.03751 7.3875 7.91251C7.2625 7.77501 7.2 7.61251 7.2 7.42501V3.60001C7.2 2.58751 7.475 1.73751 8.025 1.05001C8.575 0.350012 9.25625 1.15633e-05 10.0688 1.15633e-05C10.2813 1.15633e-05 10.4563 0.0812614 10.5938 0.243761C10.7313 0.393762 10.8 0.575012 10.8 0.787511V13.725C10.8 13.9125 10.7313 14.075 10.5938 14.2125C10.4688 14.3375 10.3125 14.4 10.125 14.4C9.9375 14.4 9.775 14.3375 9.6375 14.2125C9.5125 14.075 9.45 13.9125 9.45 13.725V8.10001Z" fill="#4A4A47"/>
</svg>
