<svg width="20.3333" height="18.9342" viewBox="0 0 20.3333 18.9342" fill="none" xmlns="http://www.w3.org/2000/svg">
<path id="Icon" d="M1 4.4671L0.503861 3.59886C0.192286 3.7769 0 4.10825 0 4.4671H1ZM1 17.8004H0C0 18.1569 0.189758 18.4864 0.498073 18.6653C0.806388 18.8443 1.18664 18.8455 1.49614 18.6687L1 17.8004ZM13.5 17.8004L13.0528 18.6949L13.5315 18.9342L13.9961 18.6687L13.5 17.8004ZM19.3333 14.4671L19.8295 15.3353C20.141 15.1573 20.3333 14.826 20.3333 14.4671H19.3333ZM19.3333 1.13377H20.3333C20.3333 0.777298 20.1436 0.447781 19.8353 0.268859C19.5269 0.0899366 19.1467 0.0886667 18.8372 0.265526L19.3333 1.13377ZM6.83333 1.13377L7.28055 0.239341L6.80186 0L6.33719 0.265526L6.83333 1.13377ZM1 4.4671H0V17.8004H1H2V4.4671H1ZM1 17.8004L1.49614 18.6687L7.32947 15.3353L6.83333 14.4671L6.33719 13.5989L0.503861 16.9322L1 17.8004ZM6.83333 14.4671L6.38612 15.3615L13.0528 18.6949L13.5 17.8004L13.9472 16.906L7.28055 13.5727L6.83333 14.4671ZM13.5 17.8004L13.9961 18.6687L19.8295 15.3353L19.3333 14.4671L18.8372 13.5989L13.0039 16.9322L13.5 17.8004ZM19.3333 14.4671H20.3333V1.13377H19.3333H18.3333V14.4671H19.3333ZM19.3333 1.13377L18.8372 0.265526L13.0039 3.59886L13.5 4.4671L13.9961 5.33534L19.8295 2.00201L19.3333 1.13377ZM13.5 4.4671L13.9472 3.57267L7.28055 0.239341L6.83333 1.13377L6.38612 2.0282L13.0528 5.36153L13.5 4.4671ZM6.83333 1.13377L6.33719 0.265526L0.503861 3.59886L1 4.4671L1.49614 5.33534L7.32947 2.00201L6.83333 1.13377ZM6.83333 1.13377H5.83333V14.4671H6.83333H7.83333V1.13377H6.83333ZM13.5 4.4671H12.5V17.8004H13.5H14.5V4.4671H13.5Z" fill="#0B2A1C"/>
</svg>
