<svg width="17" height="11" viewBox="0 0 17 11" fill="none" xmlns="http://www.w3.org/2000/svg">
<path d="M0.675006 10.8C0.487506 10.8 0.325006 10.7375 0.187506 10.6125C0.0625062 10.475 6.18398e-06 10.3125 6.18398e-06 10.125V0.675024C6.18398e-06 0.487524 0.0625062 0.331273 0.187506 0.206273C0.325006 0.0687732 0.487506 2.31266e-05 0.675006 2.31266e-05C0.862506 2.31266e-05 1.01876 0.0687732 1.14376 0.206273C1.28126 0.331273 1.35001 0.487524 1.35001 0.675024V7.20002H7.20001V2.25002C7.20001 1.87502 7.33126 1.55627 7.59376 1.29377C7.85626 1.03127 8.17501 0.900023 8.55001 0.900023H13.5C14.25 0.900023 14.8875 1.16252 15.4125 1.68752C15.9375 2.21252 16.2 2.85002 16.2 3.60002V10.125C16.2 10.3125 16.1313 10.475 15.9938 10.6125C15.8688 10.7375 15.7125 10.8 15.525 10.8C15.3375 10.8 15.175 10.7375 15.0375 10.6125C14.9125 10.475 14.85 10.3125 14.85 10.125V8.55002H1.35001V10.125C1.35001 10.3125 1.28126 10.475 1.14376 10.6125C1.01876 10.7375 0.862506 10.8 0.675006 10.8ZM4.27501 6.30002C3.65001 6.30002 3.11876 6.08127 2.68126 5.64377C2.24376 5.20627 2.02501 4.67502 2.02501 4.05002C2.02501 3.42502 2.24376 2.89377 2.68126 2.45627C3.11876 2.01877 3.65001 1.80002 4.27501 1.80002C4.90001 1.80002 5.43126 2.01877 5.86876 2.45627C6.30626 2.89377 6.52501 3.42502 6.52501 4.05002C6.52501 4.67502 6.30626 5.20627 5.86876 5.64377C5.43126 6.08127 4.90001 6.30002 4.27501 6.30002ZM8.55001 7.20002H14.85V3.60002C14.85 3.22502 14.7188 2.90627 14.4563 2.64377C14.1938 2.38127 13.875 2.25002 13.5 2.25002H8.55001V7.20002ZM4.27501 4.95002C4.52501 4.95002 4.73751 4.86252 4.91251 4.68752C5.08751 4.51252 5.17501 4.30002 5.17501 4.05002C5.17501 3.80002 5.08751 3.58752 4.91251 3.41252C4.73751 3.23752 4.52501 3.15002 4.27501 3.15002C4.02501 3.15002 3.81251 3.23752 3.63751 3.41252C3.46251 3.58752 3.37501 3.80002 3.37501 4.05002C3.37501 4.30002 3.46251 4.51252 3.63751 4.68752C3.81251 4.86252 4.02501 4.95002 4.27501 4.95002ZM8.55001 2.25002V7.20002V2.25002Z" fill="white"/>
</svg>
