<svg width="21" height="21" viewBox="0 0 21 21" fill="none" xmlns="http://www.w3.org/2000/svg">
<path d="M6.64063 14.8438L11.901 13.3334C12.2483 13.2292 12.5434 13.0556 12.7865 12.8126C13.0469 12.5522 13.2292 12.2483 13.3333 11.9011L14.8438 6.64071C14.8958 6.44973 14.8438 6.2848 14.6875 6.14591C14.5486 5.98966 14.3837 5.93758 14.1927 5.98966L8.93229 7.50008C8.58507 7.60425 8.28125 7.78654 8.02084 8.04696C7.77778 8.29001 7.60417 8.58515 7.5 8.93237L5.98959 14.1928C5.9375 14.3838 5.9809 14.5574 6.11979 14.7136C6.27604 14.8525 6.44965 14.8959 6.64063 14.8438ZM10.4167 11.9532C9.98264 11.9532 9.61806 11.8056 9.32292 11.5105C9.02778 11.2154 8.88021 10.8508 8.88021 10.4167C8.88021 9.98272 9.02778 9.61814 9.32292 9.323C9.61806 9.02786 9.98264 8.88029 10.4167 8.88029C10.8507 8.88029 11.2153 9.02786 11.5104 9.323C11.8056 9.61814 11.9531 9.98272 11.9531 10.4167C11.9531 10.8508 11.8056 11.2154 11.5104 11.5105C11.2153 11.8056 10.8507 11.9532 10.4167 11.9532ZM10.4167 20.8334C8.9757 20.8334 7.62153 20.5643 6.35417 20.0261C5.08681 19.4706 3.98438 18.724 3.04688 17.7865C2.10938 16.849 1.36285 15.7466 0.807293 14.4792C0.269099 13.2119 1.33365e-06 11.8577 1.33365e-06 10.4167C1.33365e-06 8.97577 0.269099 7.62161 0.807293 6.35425C1.36285 5.08689 2.10938 3.98446 3.04688 3.04696C3.98438 2.10945 5.08681 1.37161 6.35417 0.833413C7.62153 0.277858 8.9757 8.08835e-05 10.4167 8.08835e-05C11.8576 8.08835e-05 13.2118 0.277858 14.4792 0.833413C15.7465 1.37161 16.849 2.10945 17.7865 3.04696C18.724 3.98446 19.4618 5.08689 20 6.35425C20.5556 7.62161 20.8333 8.97577 20.8333 10.4167C20.8333 11.8577 20.5556 13.2119 20 14.4792C19.4618 15.7466 18.724 16.849 17.7865 17.7865C16.849 18.724 15.7465 19.4706 14.4792 20.0261C13.2118 20.5643 11.8576 20.8334 10.4167 20.8334ZM10.4167 18.7761C12.7257 18.7761 14.6962 17.9602 16.3281 16.3282C17.9601 14.6963 18.776 12.7258 18.776 10.4167C18.776 8.10772 17.9601 6.13723 16.3281 4.50529C14.6962 2.87334 12.7257 2.05737 10.4167 2.05737C8.10764 2.05737 6.13715 2.87334 4.50521 4.50529C2.87327 6.13723 2.05729 8.10772 2.05729 10.4167C2.05729 12.7258 2.87327 14.6963 4.50521 16.3282C6.13715 17.9602 8.10764 18.7761 10.4167 18.7761Z" fill="#9E9E9E"/>
</svg>
