<svg width="16" height="15" viewBox="0 0 16 15" fill="none" xmlns="http://www.w3.org/2000/svg">
<path d="M2.85 12.35L1.20729 13.9927C0.982985 14.217 0.725693 14.2698 0.435415 14.151C0.145138 14.0191 -1.35601e-06 13.7948 -1.35601e-06 13.4781V1.42497C-1.35601e-06 1.02914 0.13854 0.692683 0.415624 0.415599C0.692707 0.138516 1.02917 -2.50936e-05 1.425 -2.50936e-05H13.775C14.1708 -2.50936e-05 14.5073 0.138516 14.7844 0.415599C15.0615 0.692683 15.2 1.02914 15.2 1.42497V10.925C15.2 11.3208 15.0615 11.6573 14.7844 11.9344C14.5073 12.2114 14.1708 12.35 13.775 12.35H2.85ZM2.25625 10.925H13.775V1.42497H1.425V11.7562L2.25625 10.925ZM1.425 10.925V1.42497V10.925Z" fill="#A7E100"/>
</svg>
