<svg width="26" height="26" viewBox="0 0 26 26" fill="none" xmlns="http://www.w3.org/2000/svg">
<path d="M4.30625 19.5C4.01736 19.5 3.76458 19.4007 3.54792 19.2021C3.34931 18.9854 3.25 18.7326 3.25 18.4437C3.25 18.1368 3.34931 17.884 3.54792 17.6854C3.76458 17.4868 4.01736 17.3875 4.30625 17.3875H21.6938C21.9826 17.3875 22.2264 17.4868 22.425 17.6854C22.6417 17.884 22.75 18.1368 22.75 18.4437C22.75 18.7326 22.6417 18.9854 22.425 19.2021C22.2264 19.4007 21.9826 19.5 21.6938 19.5H4.30625ZM4.30625 14.0562C4.01736 14.0562 3.76458 13.9569 3.54792 13.7583C3.34931 13.5597 3.25 13.3069 3.25 13C3.25 12.6931 3.34931 12.4403 3.54792 12.2417C3.76458 12.0431 4.01736 11.9437 4.30625 11.9437H21.6938C21.9826 11.9437 22.2264 12.0431 22.425 12.2417C22.6417 12.4403 22.75 12.6931 22.75 13C22.75 13.3069 22.6417 13.5597 22.425 13.7583C22.2264 13.9569 21.9826 14.0562 21.6938 14.0562H4.30625ZM4.30625 8.6125C4.01736 8.6125 3.76458 8.51319 3.54792 8.31458C3.34931 8.11597 3.25 7.87222 3.25 7.58333C3.25 7.27639 3.34931 7.02361 3.54792 6.825C3.76458 6.60833 4.01736 6.5 4.30625 6.5H21.6938C21.9826 6.5 22.2264 6.60833 22.425 6.825C22.6417 7.02361 22.75 7.27639 22.75 7.58333C22.75 7.87222 22.6417 8.11597 22.425 8.31458C22.2264 8.51319 21.9826 8.6125 21.6938 8.6125H4.30625Z" fill="#0B2A1C"/>
</svg>
