<svg width="11" height="10" viewBox="0 0 11 10" fill="none" xmlns="http://www.w3.org/2000/svg">
<path d="M3.1875 8.0625L5.1875 6.875L7.20313 8.0625L6.67188 5.8125L8.40625 4.32812L6.10938 4.125L5.1875 1.98437L4.26563 4.125L1.96875 4.32812L3.71875 5.8125L3.1875 8.0625ZM5.1875 8.1875L2.625 9.71875C2.51042 9.78125 2.39583 9.80729 2.28125 9.79687C2.17708 9.78646 2.08333 9.75 2 9.6875C1.91667 9.625 1.85417 9.54167 1.8125 9.4375C1.77083 9.32292 1.76563 9.20833 1.79688 9.09375L2.46875 6.23437L0.203125 4.3125C0.109375 4.22917 0.0520835 4.13542 0.0312502 4.03125C0.0104168 3.91667 0.0156251 3.80729 0.0468752 3.70312C0.0781252 3.59896 0.135417 3.51562 0.21875 3.45312C0.302083 3.38021 0.40625 3.33854 0.53125 3.32812L3.5 3.0625L4.67188 0.343749C4.72396 0.229166 4.79688 0.145832 4.89063 0.0937492C4.98438 0.0312496 5.08333 -2.38419e-07 5.1875 -2.38419e-07C5.29167 -2.38419e-07 5.39063 0.0312496 5.48438 0.0937492C5.57813 0.145832 5.65104 0.229166 5.70313 0.343749L6.875 3.07812L9.84375 3.32812C9.96875 3.33854 10.0729 3.38021 10.1563 3.45312C10.2396 3.52604 10.2969 3.61458 10.3281 3.71875C10.3594 3.82292 10.3594 3.92708 10.3281 4.03125C10.3073 4.13542 10.25 4.22917 10.1563 4.3125L7.90625 6.23437L8.57813 9.09375C8.60938 9.20833 8.60417 9.32292 8.5625 9.4375C8.52083 9.54167 8.45833 9.625 8.375 9.6875C8.29167 9.75 8.19271 9.78646 8.07813 9.79687C7.97396 9.80729 7.86458 9.78125 7.75 9.71875L5.1875 8.1875Z" fill="#075B39"/>
</svg>
