<svg width="20.8122" height="20.7625" viewBox="0 0 20.8122 20.7625" fill="none" xmlns="http://www.w3.org/2000/svg">
<path id="Vector" d="M20.434 3.85C19.334 2.68125 18.1653 1.5125 16.9965 0.378125C16.7559 0.1375 16.4809 0 16.1715 0C15.8622 0 15.5528 0.103125 15.3465 0.34375L2.38715 13.2C2.1809 13.4063 2.0434 13.6469 1.94028 13.8875L0.0496528 19.6625C-0.0534722 19.9375 0.0152778 20.2125 0.152778 20.4188C0.324653 20.625 0.565278 20.7625 0.874653 20.7625H1.01215L6.89028 18.8031C7.16528 18.7 7.4059 18.5625 7.57778 18.3563L20.4684 5.5C20.6747 5.29375 20.8122 4.98437 20.8122 4.675C20.8122 4.36562 20.6747 4.09062 20.434 3.85ZM6.47778 17.2906C6.4434 17.325 6.40903 17.325 6.37465 17.3594L1.94028 18.8375L3.4184 14.4031C3.4184 14.3688 3.45278 14.3344 3.48715 14.3L12.9403 4.88125L15.9309 7.87188L6.47778 17.2906ZM16.9965 6.77188L14.0059 3.78125L16.1028 1.68437C17.0997 2.64687 18.0965 3.67812 19.059 4.675L16.9965 6.77188Z" fill="#075B39"/>
</svg>
