<svg width="19" height="21" viewBox="0 0 19 21" fill="none" xmlns="http://www.w3.org/2000/svg">
<path d="M2.05729 20.8334C1.50174 20.8334 1.01563 20.6338 0.598959 20.2345C0.199653 19.8178 0 19.3317 0 18.7761V4.11466C0 3.55911 0.199653 3.08168 0.598959 2.68237C1.01563 2.26571 1.50174 2.05737 2.05729 2.05737H3.125V1.04175C3.125 0.746608 3.22049 0.503553 3.41146 0.312581C3.61979 0.104247 3.87153 8.08835e-05 4.16667 8.08835e-05C4.46181 8.08835e-05 4.70486 0.104247 4.89583 0.312581C5.10417 0.503553 5.20833 0.746608 5.20833 1.04175V2.05737H13.5417V1.04175C13.5417 0.746608 13.6372 0.503553 13.8281 0.312581C14.0365 0.104247 14.2882 8.08835e-05 14.5833 8.08835e-05C14.8785 8.08835e-05 15.1215 0.104247 15.3125 0.312581C15.5208 0.503553 15.625 0.746608 15.625 1.04175V2.05737H16.6927C17.2483 2.05737 17.7257 2.26571 18.125 2.68237C18.5417 3.08168 18.75 3.55911 18.75 4.11466V18.7761C18.75 19.3317 18.5417 19.8178 18.125 20.2345C17.7257 20.6338 17.2483 20.8334 16.6927 20.8334H2.05729ZM2.05729 18.7761H16.6927V8.33341H2.05729V18.7761ZM2.05729 6.25008H16.6927V4.11466H2.05729V6.25008ZM2.05729 6.25008V4.11466V6.25008ZM9.375 12.5001C9.07986 12.5001 8.82813 12.4046 8.61979 12.2136C8.42882 12.0053 8.33333 11.7536 8.33333 11.4584C8.33333 11.1633 8.42882 10.9202 8.61979 10.7292C8.82813 10.5209 9.07986 10.4167 9.375 10.4167C9.67014 10.4167 9.9132 10.5209 10.1042 10.7292C10.3125 10.9202 10.4167 11.1633 10.4167 11.4584C10.4167 11.7536 10.3125 12.0053 10.1042 12.2136C9.9132 12.4046 9.67014 12.5001 9.375 12.5001ZM5.20833 12.5001C4.91319 12.5001 4.66146 12.4046 4.45313 12.2136C4.26215 12.0053 4.16667 11.7536 4.16667 11.4584C4.16667 11.1633 4.26215 10.9202 4.45313 10.7292C4.66146 10.5209 4.91319 10.4167 5.20833 10.4167C5.50347 10.4167 5.74653 10.5209 5.9375 10.7292C6.14583 10.9202 6.25 11.1633 6.25 11.4584C6.25 11.7536 6.14583 12.0053 5.9375 12.2136C5.74653 12.4046 5.50347 12.5001 5.20833 12.5001ZM13.5417 12.5001C13.2465 12.5001 12.9948 12.4046 12.7865 12.2136C12.5955 12.0053 12.5 11.7536 12.5 11.4584C12.5 11.1633 12.5955 10.9202 12.7865 10.7292C12.9948 10.5209 13.2465 10.4167 13.5417 10.4167C13.8368 10.4167 14.0799 10.5209 14.2708 10.7292C14.4792 10.9202 14.5833 11.1633 14.5833 11.4584C14.5833 11.7536 14.4792 12.0053 14.2708 12.2136C14.0799 12.4046 13.8368 12.5001 13.5417 12.5001ZM9.375 16.6667C9.07986 16.6667 8.82813 16.5713 8.61979 16.3803C8.42882 16.172 8.33333 15.9202 8.33333 15.6251C8.33333 15.3299 8.42882 15.0869 8.61979 14.8959C8.82813 14.6876 9.07986 14.5834 9.375 14.5834C9.67014 14.5834 9.9132 14.6876 10.1042 14.8959C10.3125 15.0869 10.4167 15.3299 10.4167 15.6251C10.4167 15.9202 10.3125 16.172 10.1042 16.3803C9.9132 16.5713 9.67014 16.6667 9.375 16.6667ZM5.20833 16.6667C4.91319 16.6667 4.66146 16.5713 4.45313 16.3803C4.26215 16.172 4.16667 15.9202 4.16667 15.6251C4.16667 15.3299 4.26215 15.0869 4.45313 14.8959C4.66146 14.6876 4.91319 14.5834 5.20833 14.5834C5.50347 14.5834 5.74653 14.6876 5.9375 14.8959C6.14583 15.0869 6.25 15.3299 6.25 15.6251C6.25 15.9202 6.14583 16.172 5.9375 16.3803C5.74653 16.5713 5.50347 16.6667 5.20833 16.6667ZM13.5417 16.6667C13.2465 16.6667 12.9948 16.5713 12.7865 16.3803C12.5955 16.172 12.5 15.9202 12.5 15.6251C12.5 15.3299 12.5955 15.0869 12.7865 14.8959C12.9948 14.6876 13.2465 14.5834 13.5417 14.5834C13.8368 14.5834 14.0799 14.6876 14.2708 14.8959C14.4792 15.0869 14.5833 15.3299 14.5833 15.6251C14.5833 15.9202 14.4792 16.172 14.2708 16.3803C14.0799 16.5713 13.8368 16.6667 13.5417 16.6667Z" fill="#9E9E9E"/>
</svg>
