<svg width="28" height="28" viewBox="0 0 28 28" fill="none" xmlns="http://www.w3.org/2000/svg">
<g id="icons-&#236;&#136;&#153;&#236;&#134;&#140; 1">
<path id="Vector" d="M22.4257 20.5266H5.5925C5.33227 20.5254 5.27962 20.8891 5.3014 21.0555C5.36132 21.5173 5.11259 21.8955 4.68351 21.9645C4.30588 22.025 3.85804 21.737 3.85744 21.2903L3.85502 16.1808C3.85381 14.1419 5.50474 12.5448 7.5315 12.546L20.5641 12.5545C22.5304 12.5557 24.1426 14.1716 24.1432 16.1299L24.1444 21.2903C24.1444 21.7418 23.699 22.0172 23.3189 21.9669C22.8886 21.91 22.6441 21.4913 22.6998 21.0682C22.7204 20.9121 22.6883 20.5266 22.4251 20.5266H22.4257Z" fill="white"/>
<path id="Vector_2" d="M14.5565 11.8265H13.4478C13.3854 11.8265 13.2753 11.7297 13.2656 11.6552C13.173 10.9223 12.5733 10.3789 11.8289 10.3777L9.33676 10.3734C8.57423 10.3722 7.95271 10.8945 7.85346 11.6582C7.84015 11.7599 7.72274 11.8283 7.62167 11.8265C7.13692 11.8192 6.70845 11.8791 6.24428 11.9996C6.14866 12.0244 6.02883 11.9312 6.02883 11.8259L6.03186 8.56273C6.03307 7.16173 7.16234 6.02762 8.57181 6.02762H19.4336C20.8449 6.02762 21.9718 7.15931 21.9736 8.56334L21.9772 11.8253C21.9772 11.9318 21.855 12.0256 21.7569 11.9996C21.2946 11.8779 20.8667 11.8186 20.3844 11.8259C20.2815 11.8277 20.1671 11.7629 20.1526 11.6528C20.0582 10.9248 19.4603 10.3759 18.7147 10.3759H16.1765C15.4334 10.3765 14.8367 10.9272 14.7417 11.6534C14.7314 11.7309 14.6206 11.8259 14.5571 11.8259L14.5565 11.8265Z" fill="white"/>
</g>
</svg>
