<svg width="23" height="23" viewBox="0 0 23 23" fill="none" xmlns="http://www.w3.org/2000/svg">
<g id="icons-&#235;&#167;&#155;&#236;&#167;&#145; 1">
<path id="Vector" d="M6.84825 2.51838L6.84626 6.11799H7.49102V2.51838C7.49102 2.16295 7.77935 1.87462 8.13478 1.87462C8.48972 1.87462 8.77805 2.16245 8.77855 2.51739L8.78352 6.11799H9.42629L9.42579 2.51888C9.42579 2.16295 9.71412 1.87462 10.0701 1.87462C10.426 1.87462 10.7143 2.16344 10.7143 2.51938L10.7103 8.3381C10.7093 9.35122 9.86822 10.1163 8.84218 10.0621L9.85629 19.204C9.97113 20.241 9.15834 21.113 8.16411 21.1254C7.13061 21.1388 6.30292 20.2554 6.41924 19.204L7.43286 10.0611C6.40234 10.1158 5.56569 9.35072 5.5652 8.33711L5.56271 2.51838C5.56271 2.16295 5.85054 1.87462 6.20648 1.87462C6.56191 1.87462 6.85024 2.16295 6.85024 2.51838H6.84825Z" fill="#4D4D4D"/>
<path id="Vector_2" d="M17.4249 19.2662C17.5606 20.2972 16.6976 21.1368 15.7317 21.1259C14.7529 21.1144 13.9386 20.2574 14.0723 19.2458L14.9532 12.583C14.1066 12.6322 13.3774 11.9939 13.3764 11.1214L13.3724 7.06599C13.3898 5.00793 14.5118 3.15071 16.3138 2.17686C16.4709 2.09186 16.6389 2.07993 16.7891 2.16295C16.9392 2.24596 17.0371 2.38714 17.0371 2.59593V12.0973C17.0371 12.3901 16.8189 12.577 16.5445 12.5934L17.4244 19.2667L17.4249 19.2662Z" fill="#4D4D4D"/>
</g>
</svg>
