<svg width="11" height="19" viewBox="0 0 11 19" fill="none" xmlns="http://www.w3.org/2000/svg">
<g id="span">
<path id="&#234;&#179;&#160;&#235;&#160;&#185;&#236;&#158;&#144;" d="M6.2529 4.63583e-09C5.89864 3.67245e-05 5.55891 0.143607 5.30841 0.399135C5.05792 0.654663 4.91717 1.00122 4.91714 1.36259C4.91711 1.72401 5.05782 2.07063 5.30833 2.32621C5.55883 2.58179 5.8986 2.7254 6.2529 2.72544C6.42835 2.72545 6.60209 2.69021 6.76419 2.62172C6.92629 2.55324 7.07358 2.45285 7.19764 2.3263C7.3217 2.19974 7.42011 2.0495 7.48725 1.88415C7.55438 1.71879 7.58893 1.54157 7.58892 1.36259C7.58888 1.00118 7.4481 0.65458 7.19755 0.399045C6.947 0.14351 6.6072 -2.97848e-05 6.2529 4.63583e-09ZM4.76791 3.33634C4.28345 3.40526 3.80393 3.69007 3.65162 4.12868L2.10036 8.76153C1.97982 9.12159 2.16537 9.50985 2.5164 9.63214C2.86741 9.75443 3.24708 9.56299 3.36763 9.20294L4.46424 5.92759V9.10205C4.45344 9.15382 4.44756 9.2075 4.44756 9.26265V18.2376C4.44756 18.6599 4.78094 19 5.19491 19C5.60889 19 5.94202 18.6599 5.94202 18.2376V11.4732C5.94587 11.2114 6.54384 11.238 6.54463 11.4732V18.2376C6.54463 18.6599 6.878 19 7.29198 19C7.70596 19 8.03908 18.6599 8.03908 18.2376V10.547C8.1406 10.6366 8.27307 10.6908 8.41848 10.6908C8.73954 10.6908 8.99794 10.4272 8.99794 10.0997V4.83158C8.99746 4.68398 9.00281 4.58962 8.99794 4.44582C8.99794 3.8311 8.5129 3.33634 7.91029 3.33634H4.76791ZM2.25134 9.94446L2.24584 9.94544C1.85841 9.95887 1.52933 10.1309 1.31638 10.4018C1.10344 10.6728 1.00159 11.0289 1 11.4122V11.4132V18.9725H1.48229V11.414V11.413C1.48374 11.1176 1.56275 10.8744 1.69205 10.7098C1.82022 10.5467 1.99554 10.4498 2.25605 10.4389C2.50164 10.4445 2.61198 10.5243 2.70147 10.6781C2.79209 10.8338 2.83845 11.0876 2.83225 11.3754V11.3783V11.746C2.83224 11.7783 2.83847 11.8103 2.85058 11.8402C2.8627 11.87 2.88046 11.8972 2.90286 11.92C2.92525 11.9428 2.95184 11.961 2.98111 11.9733C3.01037 11.9857 3.04173 11.992 3.0734 11.992C3.13732 11.992 3.19861 11.966 3.24379 11.9199C3.28897 11.8738 3.31432 11.8112 3.3143 11.746V11.3859C3.32167 11.0436 3.27843 10.707 3.11575 10.4274C2.95306 10.1478 2.64422 9.95001 2.25705 9.94433L2.25134 9.94446Z" fill="white"/>
</g>
</svg>
