<svg width="16" height="14" viewBox="0 0 16 14" fill="none" xmlns="http://www.w3.org/2000/svg">
<path d="M8 13.9583C7.81944 13.9583 7.63889 13.9306 7.45833 13.875C7.29167 13.8056 7.13195 13.7014 6.97917 13.5625L5.75 12.4375C4.23611 11.0903 2.89583 9.77778 1.72917 8.5C0.576389 7.20833 1.78814e-07 5.80556 1.78814e-07 4.29167C1.78814e-07 3.06944 0.416667 2.04861 1.25 1.22917C2.08333 0.409721 3.11806 -1.19209e-06 4.35417 -1.19209e-06C5.0625 -1.19209e-06 5.72917 0.152777 6.35417 0.458332C6.99306 0.749999 7.54167 1.17361 8 1.72917C8.48611 1.17361 9.03472 0.749999 9.64583 0.458332C10.2708 0.152777 10.9375 -1.19209e-06 11.6458 -1.19209e-06C12.8819 -1.19209e-06 13.9167 0.409721 14.75 1.22917C15.5833 2.04861 16 3.06944 16 4.29167C16 5.80556 15.4167 7.20833 14.25 8.5C13.0972 9.77778 11.7639 11.0903 10.25 12.4375L9.02083 13.5625C8.86806 13.7014 8.70139 13.8056 8.52083 13.875C8.35417 13.9306 8.18056 13.9583 8 13.9583ZM7.29167 3.29167C6.95833 2.72222 6.54167 2.28472 6.04167 1.97917C5.54167 1.65972 4.97917 1.5 4.35417 1.5C3.53472 1.5 2.85417 1.76389 2.3125 2.29167C1.77083 2.81944 1.5 3.48611 1.5 4.29167C1.5 5 1.75 5.74305 2.25 6.52083C2.75 7.29861 3.34722 8.0625 4.04167 8.8125C4.73611 9.54861 5.45139 10.2361 6.1875 10.875C6.92361 11.5139 7.52778 12.0417 8 12.4583C8.47222 12.0417 9.07639 11.5139 9.8125 10.875C10.5486 10.2361 11.2639 9.54861 11.9583 8.8125C12.6528 8.0625 13.25 7.29861 13.75 6.52083C14.25 5.74305 14.5 5 14.5 4.29167C14.5 3.48611 14.2292 2.81944 13.6875 2.29167C13.1458 1.76389 12.4653 1.5 11.6458 1.5C11.0208 1.5 10.4514 1.65972 9.9375 1.97917C9.4375 2.28472 9.02083 2.72222 8.6875 3.29167C8.61806 3.43055 8.52083 3.53472 8.39583 3.60417C8.27083 3.65972 8.13889 3.6875 8 3.6875C7.86111 3.6875 7.72222 3.65972 7.58333 3.60417C7.45833 3.53472 7.36111 3.43055 7.29167 3.29167Z" fill="#A7E100"/>
</svg>
