<svg width="20" height="20" viewBox="0 0 20 20" fill="none" xmlns="http://www.w3.org/2000/svg">
<g id="Heart">
<path id="Vector" d="M17 7.93989V8.54585C16.9281 9.13398 16.7938 9.68614 16.5151 10.2159C16.0438 11.1842 15.0021 12.2529 14.1754 12.9634L13.1613 13.8348L10.546 16.0011C10.2258 16.2665 9.77475 16.2662 9.4542 16.0005L6.61999 13.6499C6.04945 13.1767 5.51555 12.704 4.99364 12.1852C3.80941 11.0076 2.8875 9.66007 3.01113 7.9521C3.07277 7.09829 3.35702 6.29431 3.89811 5.62037C4.59604 4.75104 5.63062 4.2431 6.77239 4.20251C8.11895 4.15432 9.21242 4.79031 10.0001 5.82367C10.8227 4.74477 11.9751 4.10614 13.374 4.21241C14.4538 4.28172 15.4219 4.78734 16.0897 5.60386C16.6483 6.28639 16.911 7.09598 17 7.94022V7.93989Z" stroke="#A7E100" stroke-width="1.5"/>
</g>
</svg>
