<svg width="11" height="18" viewBox="0 0 11 18" fill="none" xmlns="http://www.w3.org/2000/svg">
<g id="span">
<path id="&#236;&#156;&#160;&#236;&#149;&#132;&#235;&#143;&#153;&#235;&#176;&#152;" d="M3.56083 0C2.63467 5.19831e-05 1.88389 0.731534 1.88383 1.63387C1.88389 2.5362 2.63467 3.26769 3.56083 3.26774C4.48698 3.26769 5.23776 2.5362 5.23782 1.63387C5.23776 0.731528 4.48698 5.19831e-05 3.56083 0ZM7.46655 3.18148C6.91878 3.18139 6.47466 3.61396 6.47457 4.14765C6.47448 4.68145 6.91866 5.1142 7.46655 5.11412C8.01432 5.11403 8.4583 4.68133 8.45822 4.14765C8.45813 3.61408 8.0142 3.18156 7.46655 3.18148ZM3.85462 3.75485C3.81917 3.75514 3.78302 3.75659 3.74648 3.7589C3.60963 3.75601 3.47032 3.7663 3.33014 3.79085C2.20864 3.9872 1.46786 5.0251 1.66939 6.11778L2.52167 10.7379C2.73122 11.8362 3.36076 12.4883 4.63368 12.4789H8.23489L8.59056 17.0639C8.63319 17.622 9.12398 18.0383 9.69131 17.9972C10.2586 17.9561 10.6811 17.4737 10.6386 16.9155L10.1625 10.6785C10.12 10.1217 9.63136 9.70633 9.06573 9.74518C8.98626 9.7263 8.90317 9.71659 8.81758 9.71596L6.48193 9.69834C6.15997 7.87899 6.06469 7.1179 5.83459 5.50711C5.68988 4.49405 4.99577 3.72948 3.85462 3.75485ZM7.43163 5.58524C6.85103 5.64271 6.43121 6.14454 6.4902 6.7102L6.65348 8.27542C6.71246 8.84108 7.23999 9.13549 7.56581 9.14092C7.72552 9.13468 9.47504 9.13977 9.47504 9.13977L10.1714 9.59705C10.4047 9.76155 10.7286 9.71096 10.8974 9.48362C11.0663 9.25629 11.0261 8.92358 10.781 8.77623C10.142 8.3921 9.82003 8.20785 9.53139 8.20316C9.2366 8.19911 8.98334 8.20431 8.76031 8.22008C8.76268 8.16943 8.75497 8.11998 8.7494 8.06796L8.61032 6.73108L9.4577 6.85763C9.73564 6.89916 9.99378 6.71474 10.0364 6.44395L10.037 6.43932C10.0796 6.16853 9.89033 5.91732 9.61238 5.8758C8.86079 5.76244 7.93401 5.56484 7.43163 5.58524ZM1 13.142V14.1258H7.07717V13.142H1Z" fill="white"/>
</g>
</svg>
