<svg width="13" height="18" viewBox="0 0 13 18" fill="none" xmlns="http://www.w3.org/2000/svg">
<g id="layer1">
<path id="svg_3" d="M4.00977 0C3.10319 0 2.36544 0.711418 2.36544 1.59644C2.36544 2.47184 3.10319 3.19288 4.00977 3.19288C4.92382 3.19288 5.65647 2.47184 5.65647 1.59644C5.65647 0.711418 4.92382 0 4.00977 0ZM4.23557 3.56044C4.16637 3.55939 4.09596 3.56263 4.02477 3.57048C3.26534 3.65439 2.71251 4.2292 2.7852 4.85938L3.40841 10.2625C3.72498 11.1277 4.25685 11.3117 5.05274 11.3018H9.17567L11.1356 15.7102C11.36 16.2149 11.9169 16.4611 12.3841 16.2622L12.4688 16.2261C12.936 16.0271 13.1314 15.4604 12.907 14.9557L10.7603 10.1278C10.4838 9.60229 10.2552 9.47271 9.67676 9.44931H6.09124L5.90648 7.84617H8.96987C9.32507 7.84617 9.61097 7.56636 9.61097 7.21872C9.61097 6.87108 9.32507 6.59128 8.96987 6.59128H5.76174L5.52698 4.55645C5.46111 3.98535 4.90455 3.57073 4.23557 3.56044ZM2.60151 7.41553C1.03317 8.45875 0 10.2187 0 12.2085C0 15.3994 2.65695 18 5.91728 18C7.82675 18 9.52907 17.1076 10.6121 15.7274L9.98757 14.3231C9.21602 15.7486 7.68643 16.7157 5.91728 16.7157C3.36623 16.7157 1.31194 14.7052 1.31194 12.2085C1.31194 10.9183 1.8606 9.758 2.74283 8.9378L2.60151 7.41553Z" fill="#075B39"/>
</g>
</svg>
